<svg width="16" height="16" viewBox="0 0 16 16" fill="#06B6D4" xmlns="http://www.w3.org/2000/svg">
<path fill-rule="evenodd" clip-rule="evenodd" d="M2 0C0.895431 0 0 0.895431 0 2L0 14C0 15.1046 0.895431 16 2 16H14C15.1046 16 16 15.1046 16 14V2C16 0.895431 15.1046 0 14 0L2 0ZM6.696 14H6.888L6.888 2.432H6.696C6.26933 2.432 5.912 2.464 5.624 2.528C5.34667 2.58133 5.10133 2.70933 4.888 2.912C4.68533 3.104 4.52533 3.32267 4.408 3.568C4.30133 3.80266 4.216 4.16533 4.152 4.656C4.088 5.136 4.04533 5.632 4.024 6.144C4.01333 6.656 4.008 7.536 4.008 8.784C4.008 10.0213 4.056 11.008 4.152 11.744C4.216 12.2347 4.30133 12.6027 4.408 12.848C4.52533 13.0933 4.68533 13.3173 4.888 13.52C5.10133 13.712 5.34667 13.84 5.624 13.904C5.912 13.968 6.26933 14 6.696 14ZM9.56 2.432H7.528V3.952H8.936C9.128 3.952 9.24533 3.98933 9.288 4.064C9.34133 4.128 9.368 4.24533 9.368 4.416V5.664C9.368 5.80267 9.384 5.89333 9.416 5.936C9.448 5.97867 9.53867 6 9.688 6L11.704 6C11.8533 6 11.928 5.888 11.928 5.664V4.224C11.928 3.56266 11.7253 3.09867 11.32 2.832C10.9253 2.56533 10.3387 2.432 9.56 2.432ZM11.704 10.432H9.688C9.53867 10.432 9.448 10.4533 9.416 10.496C9.384 10.5387 9.368 10.6293 9.368 10.768V12.016C9.368 12.1867 9.34133 12.3093 9.288 12.384C9.24533 12.448 9.128 12.48 8.936 12.48H7.528V14H9.56C10.3387 14 10.9253 13.8667 11.32 13.6C11.7253 13.3333 11.928 12.8693 11.928 12.208V10.768C11.928 10.544 11.8533 10.432 11.704 10.432Z" />
</svg>
